<?xml version="1.0" encoding="iso-8859-1"?>
<!-- Generator: Adobe Illustrator 19.0.0, SVG Export Plug-In . SVG Version: 6.00 Build 0)  -->
<svg version="1.1" id="Layer_1" xmlns="http://www.w3.org/2000/svg" xmlns:xlink="http://www.w3.org/1999/xlink" x="0px" y="0px"
	 viewBox="0 0 512 512" style="enable-background:new 0 0 512 512;" xml:space="preserve">
<path style="fill:#F2F2F2;" d="M469.779,34.205H42.221c-22.103,0-40.084,17.981-40.084,40.084v429.695
	c0,4.427,3.588,8.017,8.017,8.017h491.691c4.428,0,8.017-3.589,8.017-8.017V74.288C509.862,52.186,491.881,34.205,469.779,34.205z"
	/>
<path style="fill:#EB6836;" d="M509.862,74.288c0-22.103-17.981-40.084-40.083-40.084H42.221c-22.103,0-40.084,17.981-40.084,40.084
	v28.86h507.724V74.288z"/>
<path style="fill:#E5E5E5;" d="M42.221,34.205c-22.103,0-40.084,17.981-40.084,40.084v429.695c0,4.427,3.588,8.017,8.017,8.017
	h278.407L59.688,34.205H42.221z"/>
<path style="fill:#C74B38;" d="M42.221,34.205c-22.103,0-40.084,17.981-40.084,40.084v28.86h90.576L59.688,34.205H42.221z"/>
<g>
	<path style="fill:#F7D04A;" d="M256,80.167c-4.428,0-8.017-3.589-8.017-8.017V8.017C247.983,3.589,251.572,0,256,0
		c4.428,0,8.017,3.589,8.017,8.017V72.15C264.017,76.578,260.428,80.167,256,80.167z"/>
	<path style="fill:#F7D04A;" d="M196.142,80.167c-4.428,0-8.017-3.589-8.017-8.017V8.017c0-4.427,3.588-8.017,8.017-8.017
		s8.017,3.589,8.017,8.017V72.15C204.159,76.578,200.57,80.167,196.142,80.167z"/>
	<path style="fill:#F7D04A;" d="M136.284,80.167c-4.428,0-8.017-3.589-8.017-8.017V8.017c0-4.427,3.588-8.017,8.017-8.017
		c4.428,0,8.017,3.589,8.017,8.017V72.15C144.301,76.578,140.712,80.167,136.284,80.167z"/>
	<path style="fill:#F7D04A;" d="M76.426,80.167c-4.428,0-8.017-3.589-8.017-8.017V8.017C68.409,3.589,71.997,0,76.426,0
		s8.017,3.589,8.017,8.017V72.15C84.443,76.578,80.854,80.167,76.426,80.167z"/>
	<path style="fill:#F7D04A;" d="M315.858,80.167c-4.428,0-8.017-3.589-8.017-8.017V8.017c0-4.427,3.588-8.017,8.017-8.017
		c4.428,0,8.017,3.589,8.017,8.017V72.15C323.875,76.578,320.286,80.167,315.858,80.167z"/>
	<path style="fill:#F7D04A;" d="M375.716,80.167c-4.428,0-8.017-3.589-8.017-8.017V8.017c0-4.427,3.588-8.017,8.017-8.017
		c4.428,0,8.017,3.589,8.017,8.017V72.15C383.733,76.578,380.145,80.167,375.716,80.167z"/>
	<path style="fill:#F7D04A;" d="M435.574,80.167c-4.428,0-8.017-3.589-8.017-8.017V8.017c0-4.427,3.588-8.017,8.017-8.017
		s8.017,3.589,8.017,8.017V72.15C443.591,76.578,440.003,80.167,435.574,80.167z"/>
</g>
<path style="fill:#808080;" d="M439.85,242.639H72.15c-4.428,0-8.017-3.589-8.017-8.017s3.588-8.017,8.017-8.017H439.85
	c4.428,0,8.017,3.589,8.017,8.017S444.278,242.639,439.85,242.639z"/>
<path style="fill:#62C9CC;" d="M236.76,145.37h-74.823c-4.428,0-8.017,3.589-8.017,8.017v42.756c0,4.427,3.588,8.017,8.017,8.017
	h21.115l10.49,17.486c3.058,5.095,10.691,5.096,13.749,0l10.491-17.486h18.977c4.428,0,8.017-3.589,8.017-8.017v-42.756
	C244.777,148.959,241.188,145.37,236.76,145.37z"/>
<path style="fill:#808080;" d="M439.85,355.586H72.15c-4.428,0-8.017-3.589-8.017-8.017c0-4.427,3.588-8.017,8.017-8.017H439.85
	c4.428,0,8.017,3.589,8.017,8.017C447.866,351.996,444.278,355.586,439.85,355.586z"/>
<path style="fill:#F7D04A;" d="M356.476,258.672h-74.823c-4.428,0-8.017,3.589-8.017,8.017v42.756c0,4.427,3.588,8.017,8.017,8.017
	h21.115l10.49,17.486c3.058,5.095,10.691,5.096,13.749,0l10.491-17.486h18.977c4.428,0,8.017-3.589,8.017-8.017v-42.756
	C364.493,262.262,360.904,258.672,356.476,258.672z"/>
<path style="fill:#808080;" d="M439.85,469.244H72.15c-4.428,0-8.017-3.589-8.017-8.017s3.588-8.017,8.017-8.017H439.85
	c4.428,0,8.017,3.589,8.017,8.017S444.278,469.244,439.85,469.244z"/>
<path style="fill:#EB6836;" d="M172.626,371.975H97.804c-4.428,0-8.017,3.589-8.017,8.017v42.756c0,4.427,3.588,8.017,8.017,8.017
	h21.115l10.49,17.486c3.058,5.095,10.691,5.096,13.749,0l10.491-17.486h18.977c4.428,0,8.017-3.589,8.017-8.017v-42.756
	C180.643,375.564,177.055,371.975,172.626,371.975z"/>
<g>
</g>
<g>
</g>
<g>
</g>
<g>
</g>
<g>
</g>
<g>
</g>
<g>
</g>
<g>
</g>
<g>
</g>
<g>
</g>
<g>
</g>
<g>
</g>
<g>
</g>
<g>
</g>
<g>
</g>
</svg>
